# xmcd
#
# Track frame offsets: 
#        150
#        14251
#        26098
#        36216
#        57519
#        78731
#        90789
#        102867
#        118245
#        140665
#        160761
#        171480
#        182102
#
# Disc length: 2615 seconds
#
# Revision: 0
# Processed by: cddbd v1.4PL0 Copyright (c) Steve Scherf et al.
# Submitted via: ExactAudioCopy v0.90b4
#
DISCID=ad0a350d
DTITLE=Drunken Hillbilly Ballads - Justin Owens
DYEAR=2002
DGENRE=
TTITLE0=Tired Man Blues (whore song)
TTITLE1=Biscuits and Gravy
TTITLE2=Ain't Gonna Quit Drinkin'
TTITLE3=Trippin w/ the Kennedys
TTITLE4=If Hank Ain't in the Jukebox
TTITLE5=UFOs Speak to Me Through Walls
TTITLE6=The World Goes 'Round
TTITLE7=Belly as Big as Texas
TTITLE8=Lowdown Dirty Women
TTITLE9=Evil Mama
TTITLE10=Norway (troll song)
TTITLE11=Half as Sweet
TTITLE12=Nicotine
EXTD=
EXTT0=
EXTT1=
EXTT2=
EXTT3=
EXTT4=
EXTT5=
EXTT6=
EXTT7=
EXTT8=
EXTT9=
EXTT10=
EXTT11=
EXTT12=
PLAYORDER=
